<svg xmlns="http://www.w3.org/2000/svg" width="60" height="60" viewBox="0 0 60 60">
  <g id="_18-medical-record-folder" data-name="18-medical-record-folder" transform="translate(-2 -2)">
    <path id="Path_111149" data-name="Path 111149" d="M32,14H42v2H32Z" fill="#0058f7"/>
    <path id="Path_111150" data-name="Path 111150" d="M32,18H42v2H32Z" fill="#0058f7"/>
    <path id="Path_111151" data-name="Path 111151" d="M32,22H42v2H32Z" fill="#0058f7"/>
    <path id="Path_111152" data-name="Path 111152" d="M32,26H42v2H32Z" fill="#0058f7"/>
    <path id="Path_111153" data-name="Path 111153" d="M20.872,15.818a3.587,3.587,0,0,0,2.256,0A3,3,0,0,0,26,18h1a1,1,0,0,1,1,1v3h2V19a3,3,0,0,0-3-3H26a1,1,0,0,1-1-1v-.382A3.966,3.966,0,0,0,26,12V10a4,4,0,0,0-8,0v2a3.966,3.966,0,0,0,1,2.618V15a1,1,0,0,1-1,1H17a3,3,0,0,0-3,3v3h2V19a1,1,0,0,1,1-1h1a3,3,0,0,0,2.872-2.182ZM20,10a2,2,0,0,1,4,0v2a2,2,0,0,1-4,0Z" fill="#0058f7"/>
    <path id="Path_111154" data-name="Path 111154" d="M33,12h8a1,1,0,0,0,1-1V7a1,1,0,0,0-1-1H33a1,1,0,0,0-1,1v4A1,1,0,0,0,33,12Zm1-4h6v2H34Z" fill="#0058f7"/>
    <path id="Path_111155" data-name="Path 111155" d="M62,28a6.006,6.006,0,0,0-6-6H50V7a1,1,0,0,0-1-1H46V3a1,1,0,0,0-1-1H11a1,1,0,0,0-1,1V25H7a5.006,5.006,0,0,0-5,5V57a5.006,5.006,0,0,0,5,5H49a5,5,0,0,0,4.978-4.787l7.986-28.947A1,1,0,0,0,62,28ZM48,8V30H46V8ZM12,4H44V30H24.414l-4.707-4.707A1,1,0,0,0,19,25H12ZM52,57a3,3,0,0,1-3,3H7a3,3,0,0,1-3-3V30a3,3,0,0,1,3-3H18.586l4.707,4.707A1,1,0,0,0,24,32H49a3,3,0,0,1,3,3Zm2-7.385V35a5.009,5.009,0,0,0-4-4.9V24h6a4,4,0,0,1,4,3.872Z" fill="#0058f7"/>
    <path id="Path_111156" data-name="Path 111156" d="M38,41H33V36a1,1,0,0,0-1-1H24a1,1,0,0,0-1,1v5H18a1,1,0,0,0-1,1v8a1,1,0,0,0,1,1h5v5a1,1,0,0,0,1,1h8a1,1,0,0,0,1-1V51h5a1,1,0,0,0,1-1V42A1,1,0,0,0,38,41Zm-1,8H32a1,1,0,0,0-1,1v5H25V50a1,1,0,0,0-1-1H19V43h5a1,1,0,0,0,1-1V37h6v5a1,1,0,0,0,1,1h5Z" fill="#0058f7"/>
  </g>
</svg>
