<svg xmlns="http://www.w3.org/2000/svg" width="68.887" height="64.582" viewBox="0 0 68.887 64.582">
  <g id="consultation" transform="translate(0 -16.001)">
    <g id="Group_107987" data-name="Group 107987" transform="translate(0 16.001)">
      <path id="Path_111140" data-name="Path 111140" d="M65.16,233.913a8.005,8.005,0,1,0-8.69,0,8.086,8.086,0,0,0-3.653,5.7H48.033a4.714,4.714,0,0,0-4.709,4.709,4.659,4.659,0,0,0,.459,2.018H25.107a4.705,4.705,0,0,0-4.252-6.727H16.07a8.086,8.086,0,0,0-3.653-5.7,8.005,8.005,0,1,0-8.69,0A8.075,8.075,0,0,0,0,240.714v14.371a1.346,1.346,0,0,0,1.345,1.345h66.2a1.346,1.346,0,0,0,1.345-1.345V240.714A8.074,8.074,0,0,0,65.16,233.913Zm-4.345-12.035a5.315,5.315,0,1,1-5.315,5.315A5.321,5.321,0,0,1,60.814,221.878Zm-8.073,27.153v4.709h-36.6v-4.709ZM8.073,221.878a5.315,5.315,0,1,1-5.315,5.315A5.321,5.321,0,0,1,8.073,221.878ZM2.691,240.714a5.382,5.382,0,1,1,10.764,0v.244A1.346,1.346,0,0,0,14.8,242.3h6.055a2.018,2.018,0,0,1,.014,4.036H11.436a2.02,2.02,0,0,1-2.018-2.018v-3.3a1.345,1.345,0,1,0-2.691,0v3.3a4.714,4.714,0,0,0,4.709,4.709h2.018v4.709H2.691ZM66.2,253.74H55.433v-4.709h2.018a4.714,4.714,0,0,0,4.709-4.709v-3.3a1.345,1.345,0,1,0-2.691,0v3.3a2.02,2.02,0,0,1-2.018,2.018H48a2.018,2.018,0,0,1,.028-4.036h6.055a1.346,1.346,0,0,0,1.345-1.345v-.244a5.382,5.382,0,1,1,10.764,0Z" transform="translate(0 -191.849)" fill="#0058f7"/>
      <path id="Path_111141" data-name="Path 111141" d="M128.845,46.892a1.346,1.346,0,0,0,1.665,1.633l4.569-1.278a17.159,17.159,0,0,0,19.375.133l4.092,1.145a1.346,1.346,0,0,0,1.665-1.633l-1.086-4.2A17.156,17.156,0,0,0,144.865,16a17.383,17.383,0,0,0-2.233.145,1.346,1.346,0,0,0,.347,2.669,14.661,14.661,0,0,1,1.886-.122,14.464,14.464,0,0,1,11.715,22.947,1.345,1.345,0,0,0-.214,1.127l.656,2.538-2.457-.687a1.346,1.346,0,0,0-1.158.211,14.464,14.464,0,0,1-17.253-.125,1.345,1.345,0,0,0-1.174-.222l-2.946.824.84-3.251a1.346,1.346,0,0,0-.172-1.066,14.467,14.467,0,0,1,.684-16.632,1.345,1.345,0,1,0-2.134-1.639,17.16,17.16,0,0,0-1.127,19.221Z" transform="translate(-110.527 -16.001)" fill="#0058f7"/>
      <path id="Path_111142" data-name="Path 111142" d="M176.555,78.3h5.382v5.382a1.345,1.345,0,0,0,1.345,1.345h5.382a1.346,1.346,0,0,0,1.345-1.345V78.3h5.382a1.346,1.346,0,0,0,1.345-1.345V71.574a1.346,1.346,0,0,0-1.345-1.345H190.01V64.846a1.346,1.346,0,0,0-1.345-1.345h-5.382a1.346,1.346,0,0,0-1.345,1.345v5.382h-5.382a1.346,1.346,0,0,0-1.345,1.345v5.382A1.346,1.346,0,0,0,176.555,78.3Zm1.345-5.382h5.382a1.346,1.346,0,0,0,1.345-1.345V66.192h2.691v5.382a1.346,1.346,0,0,0,1.345,1.345h5.382V75.61h-5.382a1.346,1.346,0,0,0-1.345,1.345v5.382h-2.691V76.955a1.346,1.346,0,0,0-1.345-1.345H177.9Z" transform="translate(-151.636 -57.11)" fill="#0058f7"/>
      <path id="Path_111143" data-name="Path 111143" d="M187.809,34.433a1.346,1.346,0,0,0,1.167-2.013h0a1.345,1.345,0,1,0-1.166,2.014Z" transform="translate(-161.375 -29.623)" fill="#0058f7"/>
    </g>
  </g>
</svg>
