<svg xmlns="http://www.w3.org/2000/svg" width="439.171" height="99.829" viewBox="0 0 439.171 99.829">
  <g id="Group_108102" data-name="Group 108102" transform="translate(-114 -17)">
    <g id="Group_108083" data-name="Group 108083" transform="translate(0 -13.695)">
      <rect id="Rectangle_33660" data-name="Rectangle 33660" width="53.694" height="84.215" transform="translate(123.509 39.277)" fill="#00569d"/>
      <path id="Path_111392" data-name="Path 111392" d="M70.945,141.2l18.017.637,52.349-52.564-40.059-.636L124.57,61.723l2.117,4.239,9.75-23.951L112.7,51.762l4.451,2.331L75.184,97.331,114.4,98.39Z" transform="translate(43.055 -11.316)" fill="#1a1818"/>
    </g>
    <g id="Group_108101" data-name="Group 108101" transform="translate(35.708 -35.545)">
      <g id="Group_108094" data-name="Group 108094" transform="translate(188.131 81.226)">
        <path id="Path_111429" data-name="Path 111429" d="M204.629,96.164v9.029h-3.2V81.765q3.629-.16,4.382-.159,10.2,0,10.2,6.823,0,7.9-9.019,7.9Q206.452,96.325,204.629,96.164Zm0-11.513v8.627q2.028.16,2.14.161,5.941,0,5.941-4.674,0-4.272-6.34-4.273A12.838,12.838,0,0,0,204.629,84.651Z" transform="translate(-201.429 -81.606)" fill="#00569d"/>
      </g>
      <g id="Group_108095" data-name="Group 108095" transform="translate(204.618 80.675)">
        <path id="Path_111430" data-name="Path 111430" d="M237.652,104.886V94.132a4.5,4.5,0,0,0-.942-3.021,3.3,3.3,0,0,0-2.651-1.1,4.362,4.362,0,0,0-2.211.647,5.159,5.159,0,0,0-1.7,1.51v12.72H227.1V80.748h3.044v8.9a4.527,4.527,0,0,1,1.958-1.574,6.508,6.508,0,0,1,2.789-.631,5.319,5.319,0,0,1,4.259,1.791,7.248,7.248,0,0,1,1.542,4.893v10.764Z" transform="translate(-227.105 -80.748)" fill="#00569d"/>
        <path id="Path_111431" data-name="Path 111431" d="M260.407,111.7a5.258,5.258,0,0,1-2.488,2.721,8.359,8.359,0,0,1-4.232,1.087v-2.728a5.833,5.833,0,0,0,3.259-.888,2.565,2.565,0,0,0,1.358-2.167,8.086,8.086,0,0,0-.5-2.773q-.494-1.368-1.277-3.383L251.9,91.657H255l5.051,13.238,4.526-13.238h3.1Z" transform="translate(-235.98 -84.652)" fill="#00569d"/>
        <path id="Path_111432" data-name="Path 111432" d="M278.4,107.585l1.07-2.879a8.292,8.292,0,0,0,4.092,1.653q2.813,0,2.813-2.362,0-1.692-2.719-2.9a22.382,22.382,0,0,1-2.824-1.454,6.287,6.287,0,0,1-1.263-1.127,4.479,4.479,0,0,1-.8-1.343,4.338,4.338,0,0,1-.265-1.527,3.921,3.921,0,0,1,1.538-3.293,6.417,6.417,0,0,1,4.022-1.182,12.986,12.986,0,0,1,4.726,1.18l-.866,2.808a5.9,5.9,0,0,0-3.638-1.417,3.18,3.18,0,0,0-1.835.51,1.522,1.522,0,0,0-.745,1.293,2.69,2.69,0,0,0,1.872,2.489l2.175.988a7.653,7.653,0,0,1,2.911,2.079,4.606,4.606,0,0,1,.912,2.925,4.377,4.377,0,0,1-1.616,3.605,6.953,6.953,0,0,1-4.478,1.3A10.19,10.19,0,0,1,278.4,107.585Z" transform="translate(-245.463 -84.477)" fill="#00569d"/>
        <path id="Path_111433" data-name="Path 111433" d="M301.73,105.179V90.617h-2.362V88.045h5.405v17.134Zm1.685-23.614a1.817,1.817,0,0,1,1.332.55,1.89,1.89,0,1,1-1.332-.55Z" transform="translate(-252.967 -81.04)" fill="#00569d"/>
        <path id="Path_111434" data-name="Path 111434" d="M327.724,92.872l-1.516,2.151a4.58,4.58,0,0,0-1.654-.873,7.08,7.08,0,0,0-2.332-.413,4.938,4.938,0,0,0-3.97,1.731,7.105,7.105,0,0,0-1.468,4.746,6.4,6.4,0,0,0,1.488,4.571,5.4,5.4,0,0,0,4.126,1.573,6.84,6.84,0,0,0,4.128-1.575l1.2,2.571a10.984,10.984,0,0,1-6.063,1.575,7.737,7.737,0,0,1-5.791-2.351,8.73,8.73,0,0,1-2.287-6.363,9.058,9.058,0,0,1,2.392-6.57,9.192,9.192,0,0,1,9.447-1.92A8.239,8.239,0,0,1,327.724,92.872Z" transform="translate(-258.054 -84.477)" fill="#00569d"/>
        <path id="Path_111435" data-name="Path 111435" d="M341.519,105.179V90.617h-2.361V88.045h5.4v17.134ZM343.2,81.565a1.876,1.876,0,1,1,0,3.752,1.8,1.8,0,0,1-1.318-.552,1.867,1.867,0,0,1,1.318-3.2Z" transform="translate(-267.207 -81.04)" fill="#00569d"/>
        <path id="Path_111436" data-name="Path 111436" d="M364.287,106.647a6.7,6.7,0,0,1-5.577,2.283,4.806,4.806,0,0,1-3.492-1.461,4.9,4.9,0,0,1-1.478-3.631,5.418,5.418,0,0,1,2.277-4.4,9.1,9.1,0,0,1,5.809-1.795,6.713,6.713,0,0,1,2.174.421q0-4.172-3.709-4.172a5.951,5.951,0,0,0-4.379,1.522l-1.279-2.545a7.5,7.5,0,0,1,2.391-1.2,9.334,9.334,0,0,1,2.918-.5q3.727,0,5.414,1.7t1.687,5.393V104.4q0,2.258,1.338,3.009v1.522a5.678,5.678,0,0,1-2.774-.532A2.984,2.984,0,0,1,364.287,106.647ZM364,100.219a11.1,11.1,0,0,0-2.012-.315,5.758,5.758,0,0,0-3.751,1.18,3.512,3.512,0,0,0-1.453,2.793q0,2.664,3.146,2.665a5.152,5.152,0,0,0,4.07-2.2Z" transform="translate(-272.426 -84.477)" fill="#00569d"/>
        <path id="Path_111437" data-name="Path 111437" d="M392.427,108.615V98.659a6.59,6.59,0,0,0-.824-3.827,3.233,3.233,0,0,0-2.759-1.094,4.524,4.524,0,0,0-2.176.623,4.833,4.833,0,0,0-1.745,1.533v12.72H381.88V91.482h2.081l.961,2.206a5.279,5.279,0,0,1,4.914-2.52q5.636,0,5.635,6.845v10.6Z" transform="translate(-282.496 -84.477)" fill="#00569d"/>
        <path id="Path_111438" data-name="Path 111438" d="M412.37,90.482l-1.076-1.424,1.212-1.022a2.36,2.36,0,0,0,.685-.864,2.417,2.417,0,0,0,.2-.975,2.177,2.177,0,0,0-.787-1.517,2.23,2.23,0,0,1-.787-1.583,2.064,2.064,0,0,1,2.321-2.349q2.482,0,2.481,2.829a7.141,7.141,0,0,1-1.131,3.844A9.626,9.626,0,0,1,412.37,90.482Z" transform="translate(-293.023 -80.748)" fill="#00569d"/>
      </g>
      <g id="Group_108096" data-name="Group 108096" transform="translate(330.56 87.366)">
        <path id="Path_111439" data-name="Path 111439" d="M423.241,107.585l1.07-2.879a8.292,8.292,0,0,0,4.092,1.653q2.814,0,2.814-2.362,0-1.692-2.72-2.9a22.38,22.38,0,0,1-2.824-1.454,6.291,6.291,0,0,1-1.264-1.127,4.465,4.465,0,0,1-.8-1.343,4.339,4.339,0,0,1-.264-1.527,3.921,3.921,0,0,1,1.537-3.293,6.419,6.419,0,0,1,4.022-1.182,12.991,12.991,0,0,1,4.727,1.18l-.866,2.808a5.9,5.9,0,0,0-3.639-1.417,3.178,3.178,0,0,0-1.835.51,1.521,1.521,0,0,0-.744,1.293,2.689,2.689,0,0,0,1.87,2.489l2.176.988A7.635,7.635,0,0,1,433.5,101.1a4.6,4.6,0,0,1,.913,2.925,4.378,4.378,0,0,1-1.615,3.605,6.956,6.956,0,0,1-4.479,1.3A10.184,10.184,0,0,1,423.241,107.585Z" transform="translate(-423.241 -91.167)" fill="#00569d"/>
      </g>
      <g id="Group_108097" data-name="Group 108097" transform="translate(354.907 80.675)">
        <path id="Path_111440" data-name="Path 111440" d="M461.157,93.127a13.839,13.839,0,0,1,2.549-8.507,8.131,8.131,0,0,1,6.879-3.422,9.13,9.13,0,0,1,7.47,3.15q2.6,3.152,2.6,8.78,0,5.772-2.606,9.043a8.981,8.981,0,0,1-7.461,3.27,8.069,8.069,0,0,1-6.926-3.454A14.73,14.73,0,0,1,461.157,93.127Zm3.358,0a13.083,13.083,0,0,0,1.589,6.727,4.955,4.955,0,0,0,4.481,2.7,5.693,5.693,0,0,0,4.991-2.477,12.082,12.082,0,0,0,1.717-6.95q0-9.045-6.708-9.044a5.033,5.033,0,0,0-4.521,2.428A12.208,12.208,0,0,0,464.515,93.127Z" transform="translate(-461.157 -80.909)" fill="#00569d"/>
        <path id="Path_111441" data-name="Path 111441" d="M505.532,83.455a5.318,5.318,0,0,0-1.727-.32,2.891,2.891,0,0,0-2.3,1.055,3.959,3.959,0,0,0-.9,2.668,5.329,5.329,0,0,0,.079.9h3.489v2.572h-3.489v14.562h-3.044V90.325H495.15V87.753h2.495a7.592,7.592,0,0,1,1.617-5.139,5.365,5.365,0,0,1,4.27-1.866,9.548,9.548,0,0,1,2.848.477Z" transform="translate(-473.323 -80.748)" fill="#00569d"/>
        <path id="Path_111442" data-name="Path 111442" d="M524.379,83.455a5.312,5.312,0,0,0-1.726-.32,2.889,2.889,0,0,0-2.295,1.055,3.962,3.962,0,0,0-.9,2.668,5.325,5.325,0,0,0,.079.9h3.49v2.572h-3.49v14.562H516.49V90.325H514V87.753h2.5a7.6,7.6,0,0,1,1.614-5.139,5.372,5.372,0,0,1,4.273-1.866,9.538,9.538,0,0,1,2.846.477Z" transform="translate(-480.068 -80.748)" fill="#00569d"/>
        <path id="Path_111443" data-name="Path 111443" d="M535.536,105.179V90.617h-2.362V88.045h5.4v17.134Zm1.684-23.614a1.817,1.817,0,0,1,1.333.55,1.89,1.89,0,1,1-1.333-.55Z" transform="translate(-486.931 -81.04)" fill="#00569d"/>
        <path id="Path_111444" data-name="Path 111444" d="M561.53,92.872l-1.517,2.151a4.573,4.573,0,0,0-1.655-.873,7.074,7.074,0,0,0-2.332-.413,4.935,4.935,0,0,0-3.969,1.731,7.106,7.106,0,0,0-1.469,4.746,6.4,6.4,0,0,0,1.487,4.571,5.409,5.409,0,0,0,4.128,1.573,6.841,6.841,0,0,0,4.128-1.575l1.2,2.571a10.981,10.981,0,0,1-6.062,1.575,7.738,7.738,0,0,1-5.792-2.351,8.731,8.731,0,0,1-2.287-6.363,9.055,9.055,0,0,1,2.392-6.57,9.193,9.193,0,0,1,9.447-1.92A8.239,8.239,0,0,1,561.53,92.872Z" transform="translate(-492.018 -84.477)" fill="#00569d"/>
        <path id="Path_111445" data-name="Path 111445" d="M588.191,100.35H575.839a6.15,6.15,0,0,0,1.646,4.606,5.172,5.172,0,0,0,3.743,1.4,6.442,6.442,0,0,0,4.35-1.5l1.281,2.177a5.767,5.767,0,0,1-2.159,1.217,11.688,11.688,0,0,1-4.063.672,7.584,7.584,0,0,1-5.487-2.191,8.585,8.585,0,0,1-2.511-6.492,9.147,9.147,0,0,1,2.576-6.794,7.488,7.488,0,0,1,5.457-2.286,7.8,7.8,0,0,1,5.745,2.062,7.058,7.058,0,0,1,2.016,5.265A6.775,6.775,0,0,1,588.191,100.35Zm-7.374-6.612a4.8,4.8,0,0,0-4.9,4.408h9.5a4.312,4.312,0,0,0-1.154-3.067A4.5,4.5,0,0,0,580.817,93.738Z" transform="translate(-501.054 -84.477)" fill="#00569d"/>
        <path id="Path_111446" data-name="Path 111446" d="M603.959,121.666l-.814-1.151q2.728-2.256,2.728-3.836a2.508,2.508,0,0,0-.475-1.408,2.052,2.052,0,0,1-1.361-1.887,1.754,1.754,0,0,1,.655-1.4,2.469,2.469,0,0,1,1.644-.55,2.079,2.079,0,0,1,1.572.767,2.586,2.586,0,0,1,.694,1.791,8.174,8.174,0,0,1-.885,3.829A12.8,12.8,0,0,1,603.959,121.666Z" transform="translate(-511.972 -91.73)" fill="#00569d"/>
      </g>
      <g id="Group_108098" data-name="Group 108098" transform="translate(469.157 81.384)">
        <path id="Path_111447" data-name="Path 111447" d="M639.085,105.281V81.851h3.2v23.43Z" transform="translate(-639.085 -81.851)" fill="#00569d"/>
        <path id="Path_111448" data-name="Path 111448" d="M662.557,108.615V98.659a6.591,6.591,0,0,0-.823-3.827,3.234,3.234,0,0,0-2.76-1.094,4.524,4.524,0,0,0-2.176.623,4.829,4.829,0,0,0-1.745,1.533v12.72H652.01V91.482h2.08l.961,2.206a5.278,5.278,0,0,1,4.914-2.52q5.636,0,5.635,6.845v10.6Z" transform="translate(-643.711 -85.185)" fill="#00569d"/>
        <path id="Path_111449" data-name="Path 111449" d="M692.3,92.872l-1.517,2.151a4.562,4.562,0,0,0-1.654-.873,7.073,7.073,0,0,0-2.332-.413,4.932,4.932,0,0,0-3.968,1.731,7.1,7.1,0,0,0-1.47,4.746,6.4,6.4,0,0,0,1.487,4.571,5.409,5.409,0,0,0,4.128,1.573,6.843,6.843,0,0,0,4.128-1.575l1.2,2.571a10.984,10.984,0,0,1-6.063,1.575,7.737,7.737,0,0,1-5.791-2.351,8.73,8.73,0,0,1-2.288-6.363,9.055,9.055,0,0,1,2.392-6.57,9.194,9.194,0,0,1,9.447-1.92A8.255,8.255,0,0,1,692.3,92.872Z" transform="translate(-653.068 -85.185)" fill="#00569d"/>
        <path id="Path_111450" data-name="Path 111450" d="M709.237,111.352a2.4,2.4,0,1,1-2.4,2.393,2.4,2.4,0,0,1,2.4-2.393Z" transform="translate(-663.332 -92.409)" fill="#00569d"/>
      </g>
      <g id="Group_108099" data-name="Group 108099" transform="translate(164.271 80.545)">
        <path id="Path_111451" data-name="Path 111451" d="M168.852,93.518a11.024,11.024,0,0,0-.2,2.035,5.925,5.925,0,0,0,1.639,4.49,6.351,6.351,0,0,0,4.583,1.571,8.936,8.936,0,0,0,5.27-1.935l-.442,4.3a20.287,20.287,0,0,1-6.265,1.174q-9.167,0-9.166-10.278a14.408,14.408,0,0,1,3.849-10.19,12.657,12.657,0,0,1,9.686-4.143,9.439,9.439,0,0,1,5.617,1.508,4.977,4.977,0,0,1,2.1,4.3,7.036,7.036,0,0,1-3.273,6.12,13.863,13.863,0,0,1-8.026,2.24A11.082,11.082,0,0,1,168.852,93.518Zm.731-3.047a9.569,9.569,0,0,0,3.952.753,12.3,12.3,0,0,0,5.631-1.124,3.539,3.539,0,0,0,2.186-3.279q0-2.733-3.754-2.733Q171.88,84.088,169.583,90.471Z" transform="translate(-164.271 -80.545)" fill="#1a1818"/>
      </g>
      <line id="Line_14" data-name="Line 14" x1="174.014" transform="translate(167.962 120.445)" fill="#1a1818" stroke="#00569d" stroke-width="2"/>
      <g id="Group_108100" data-name="Group 108100" transform="translate(348.406 113.943)">
        <path id="Path_111452" data-name="Path 111452" d="M452.464,133.639H456.5a5.8,5.8,0,0,1,1.908.31,3.782,3.782,0,0,1,2.457,2.544,5.092,5.092,0,0,1,.116,2.262,5.474,5.474,0,0,1-.824,2.276,6.059,6.059,0,0,1-1.5,1.591,6.368,6.368,0,0,1-1.872.939,6.512,6.512,0,0,1-1.929.311h-3.817Zm1.98,8.586a6.735,6.735,0,0,0,1.634-.2,4.483,4.483,0,0,0,1.4-.607,3.562,3.562,0,0,0,1.041-1.07,3.945,3.945,0,0,0,.549-1.6,3.79,3.79,0,0,0-.065-1.59,2.284,2.284,0,0,0-.65-1.077,2.819,2.819,0,0,0-1.128-.607,5.4,5.4,0,0,0-1.51-.2h-1.662l-.969,6.938Z" transform="translate(-451.033 -132.945)" fill="#82a6d2"/>
        <path id="Path_111453" data-name="Path 111453" d="M468.051,142.144a4.077,4.077,0,0,1,.506-1.5,4.234,4.234,0,0,1,.968-1.149,4.317,4.317,0,0,1,1.308-.737,4.468,4.468,0,0,1,1.511-.26,3.819,3.819,0,0,1,1.431.26,2.956,2.956,0,0,1,1.092.737,2.89,2.89,0,0,1,.643,1.149,3.487,3.487,0,0,1,.087,1.5,4.092,4.092,0,0,1-.506,1.5,4.286,4.286,0,0,1-.961,1.149,4.23,4.23,0,0,1-1.3.737,4.469,4.469,0,0,1-1.511.261,3.876,3.876,0,0,1-1.438-.261,2.942,2.942,0,0,1-1.1-.737,2.892,2.892,0,0,1-.643-1.149A3.477,3.477,0,0,1,468.051,142.144Zm1.734,0a2.114,2.114,0,0,0,.029.78,1.681,1.681,0,0,0,.311.665,1.612,1.612,0,0,0,.578.462,1.869,1.869,0,0,0,.831.173,2.216,2.216,0,0,0,.882-.173,2.358,2.358,0,0,0,1.2-1.128,2.538,2.538,0,0,0,.245-.78,2.089,2.089,0,0,0-.029-.781,1.694,1.694,0,0,0-.31-.665,1.62,1.62,0,0,0-.579-.463,1.871,1.871,0,0,0-.832-.173,2.16,2.16,0,0,0-.874.173,2.383,2.383,0,0,0-.7.463,2.513,2.513,0,0,0-.5.665A2.445,2.445,0,0,0,469.785,142.144Z" transform="translate(-457.108 -134.685)" fill="#82a6d2"/>
        <path id="Path_111454" data-name="Path 111454" d="M487.072,140.756a2.245,2.245,0,0,0-.572-.506,1.246,1.246,0,0,0-.658-.188,2.16,2.16,0,0,0-.874.173,2.367,2.367,0,0,0-.7.463,2.517,2.517,0,0,0-.5.665,2.428,2.428,0,0,0-.252.781,2.1,2.1,0,0,0,.029.78,1.689,1.689,0,0,0,.311.665,1.614,1.614,0,0,0,.579.462,1.978,1.978,0,0,0,1.6.007,1.989,1.989,0,0,0,.658-.484l.983,1.243a3.5,3.5,0,0,1-.665.448,4.651,4.651,0,0,1-1.409.47,3.757,3.757,0,0,1-.557.051,3.879,3.879,0,0,1-1.438-.261,2.947,2.947,0,0,1-1.1-.737,2.892,2.892,0,0,1-.643-1.149,3.478,3.478,0,0,1-.086-1.5,4.064,4.064,0,0,1,.506-1.5,4.21,4.21,0,0,1,.968-1.149,4.31,4.31,0,0,1,1.308-.737,4.467,4.467,0,0,1,1.51-.26,3.505,3.505,0,0,1,1.3.253,2.427,2.427,0,0,1,1.054.8Z" transform="translate(-462.022 -134.685)" fill="#82a6d2"/>
        <path id="Path_111455" data-name="Path 111455" d="M492.385,139.125l.2-1.474h1.431l.274-2.009h1.735l-.275,2.009h1.908l-.2,1.474h-1.908l-.433,3.035a1.4,1.4,0,0,0,.08.824q.151.3.729.3a2.959,2.959,0,0,0,.513-.05,1.2,1.2,0,0,0,.455-.166l-.2,1.46a2.446,2.446,0,0,1-.694.181,5.872,5.872,0,0,1-.708.051,3.333,3.333,0,0,1-1.113-.152,1.237,1.237,0,0,1-.629-.462,1.52,1.52,0,0,1-.238-.773,5.313,5.313,0,0,1,.058-1.07l.448-3.18Z" transform="translate(-465.832 -133.662)" fill="#82a6d2"/>
        <path id="Path_111456" data-name="Path 111456" d="M501.389,142.144a4.077,4.077,0,0,1,.506-1.5,4.211,4.211,0,0,1,.968-1.149,4.318,4.318,0,0,1,1.308-.737,4.469,4.469,0,0,1,1.511-.26,3.819,3.819,0,0,1,1.431.26,2.956,2.956,0,0,1,1.092.737,2.9,2.9,0,0,1,.643,1.149,3.488,3.488,0,0,1,.087,1.5,4.093,4.093,0,0,1-.506,1.5,4.286,4.286,0,0,1-.961,1.149,4.229,4.229,0,0,1-1.3.737,4.469,4.469,0,0,1-1.511.261,3.873,3.873,0,0,1-1.438-.261,2.941,2.941,0,0,1-1.1-.737,2.893,2.893,0,0,1-.643-1.149A3.478,3.478,0,0,1,501.389,142.144Zm1.734,0a2.112,2.112,0,0,0,.029.78,1.681,1.681,0,0,0,.311.665,1.612,1.612,0,0,0,.578.462,1.869,1.869,0,0,0,.831.173,2.216,2.216,0,0,0,.882-.173,2.364,2.364,0,0,0,1.2-1.128,2.554,2.554,0,0,0,.245-.78,2.1,2.1,0,0,0-.029-.781,1.694,1.694,0,0,0-.31-.665,1.626,1.626,0,0,0-.579-.463,1.873,1.873,0,0,0-.832-.173,2.16,2.16,0,0,0-.874.173,2.383,2.383,0,0,0-.7.463,2.514,2.514,0,0,0-.5.665A2.445,2.445,0,0,0,503.123,142.144Z" transform="translate(-469.039 -134.685)" fill="#82a6d2"/>
        <path id="Path_111457" data-name="Path 111457" d="M515.908,138.674h1.734l-.159,1.1h.03a2.682,2.682,0,0,1,.961-.939,2.553,2.553,0,0,1,1.28-.333,1.546,1.546,0,0,1,.3.029c.1.019.2.043.3.072l-.246,1.677q-.2-.058-.405-.094a2.326,2.326,0,0,0-.4-.036,2.072,2.072,0,0,0-1.012.224,2.192,2.192,0,0,0-.643.513,1.9,1.9,0,0,0-.34.578,2.128,2.128,0,0,0-.116.434l-.519,3.715h-1.736Z" transform="translate(-473.904 -134.685)" fill="#82a6d2"/>
        <path id="Path_111458" data-name="Path 111458" d="M527.809,140.6a1.348,1.348,0,0,0-1.257-.708,1.641,1.641,0,0,0-.362.043,1.349,1.349,0,0,0-.347.13.828.828,0,0,0-.268.231.719.719,0,0,0-.137.333.418.418,0,0,0,.209.462,2.557,2.557,0,0,0,.658.246q.4.1.875.209a3.032,3.032,0,0,1,.853.333,1.487,1.487,0,0,1,.73,1.684,2.187,2.187,0,0,1-.412,1.048,2.554,2.554,0,0,1-.788.686,3.54,3.54,0,0,1-1.011.376,5.264,5.264,0,0,1-1.084.116,4.338,4.338,0,0,1-1.46-.232,2.314,2.314,0,0,1-1.1-.838l1.315-1.085a2.91,2.91,0,0,0,.629.615,1.517,1.517,0,0,0,.889.238,1.961,1.961,0,0,0,.4-.043,1.453,1.453,0,0,0,.4-.145,1.111,1.111,0,0,0,.318-.252.688.688,0,0,0,.159-.354.5.5,0,0,0-.2-.535,2.139,2.139,0,0,0-.658-.281q-.4-.109-.875-.2a3.092,3.092,0,0,1-.86-.3,1.4,1.4,0,0,1-.737-1.626,2.344,2.344,0,0,1,.383-1,2.52,2.52,0,0,1,.729-.7,3.269,3.269,0,0,1,.955-.405,4.274,4.274,0,0,1,1.04-.13,3.825,3.825,0,0,1,1.338.238,1.818,1.818,0,0,1,.975.817Z" transform="translate(-476.756 -134.685)" fill="#82a6d2"/>
        <path id="Path_111459" data-name="Path 111459" d="M540.4,138.771h1.879l.824,4.857h.029l2.082-4.857h1.878l.824,4.857h.029l2.125-4.857h1.749l-3.325,6.938h-1.72l-.982-4.741h-.029l-2.125,4.741h-1.792Z" transform="translate(-483.016 -134.782)" fill="#82a6d2"/>
        <path id="Path_111460" data-name="Path 111460" d="M559.286,136.877h1.734l-.968,6.938h-1.735Zm.087-2.356a1.167,1.167,0,0,1,.412-.73,1.223,1.223,0,0,1,.831-.311,1.022,1.022,0,0,1,.766.3.82.82,0,0,1,.217.745,1.179,1.179,0,0,1-.433.744,1.288,1.288,0,0,1-.839.3.926.926,0,0,1-.744-.311A.883.883,0,0,1,559.373,134.522Z" transform="translate(-489.428 -132.888)" fill="#82a6d2"/>
        <path id="Path_111461" data-name="Path 111461" d="M564.058,139.125l.2-1.474h1.431l.274-2.009H567.7l-.274,2.009h1.908l-.2,1.474h-1.908l-.434,3.035a1.408,1.408,0,0,0,.08.824q.151.3.729.3a2.965,2.965,0,0,0,.513-.05,1.2,1.2,0,0,0,.455-.166l-.2,1.46a2.451,2.451,0,0,1-.694.181,5.883,5.883,0,0,1-.708.051,3.332,3.332,0,0,1-1.113-.152,1.237,1.237,0,0,1-.629-.462,1.521,1.521,0,0,1-.238-.773,5.313,5.313,0,0,1,.058-1.07l.448-3.18Z" transform="translate(-491.483 -133.662)" fill="#82a6d2"/>
        <path id="Path_111462" data-name="Path 111462" d="M575.478,137.516h.029a2.443,2.443,0,0,1,.824-.787,2.9,2.9,0,0,1,2.522-.123,1.774,1.774,0,0,1,.7.607,1.983,1.983,0,0,1,.3.867,4.092,4.092,0,0,1-.014,1.027l-.607,4.379H577.5l.491-3.512a5.983,5.983,0,0,0,.058-.643,2.314,2.314,0,0,0-.065-.665,1.035,1.035,0,0,0-.311-.519.98.98,0,0,0-.679-.21,1.808,1.808,0,0,0-.752.144,1.649,1.649,0,0,0-.541.39,2,2,0,0,0-.362.564,2.438,2.438,0,0,0-.181.665l-.52,3.787H572.9l1.533-10.928h1.734Z" transform="translate(-494.648 -132.558)" fill="#82a6d2"/>
        <path id="Path_111463" data-name="Path 111463" d="M596.841,133.639h1.575l2.978,10.233h-2.081l-.636-2.341h-4.438L593,143.872h-2.038Zm1.417,6.331-.983-4.163-2.2,4.163Z" transform="translate(-501.11 -132.945)" fill="#1a1818"/>
        <path id="Path_111464" data-name="Path 111464" d="M610.352,133.639h1.821l-1.431,10.233h-1.821Z" transform="translate(-507.538 -132.945)" fill="#1a1818"/>
        <path id="Path_111465" data-name="Path 111465" d="M625.774,140.6a1.348,1.348,0,0,0-1.257-.708,1.651,1.651,0,0,0-.362.043,1.358,1.358,0,0,0-.347.13.833.833,0,0,0-.267.231.727.727,0,0,0-.137.333.419.419,0,0,0,.21.462,2.554,2.554,0,0,0,.658.246q.4.1.874.209a3.03,3.03,0,0,1,.853.333,1.487,1.487,0,0,1,.729,1.684,2.192,2.192,0,0,1-.412,1.048,2.554,2.554,0,0,1-.788.686,3.54,3.54,0,0,1-1.011.376,5.265,5.265,0,0,1-1.085.116,4.337,4.337,0,0,1-1.459-.232,2.314,2.314,0,0,1-1.1-.838l1.315-1.085a2.923,2.923,0,0,0,.629.615,1.52,1.52,0,0,0,.889.238,1.971,1.971,0,0,0,.4-.043,1.442,1.442,0,0,0,.4-.145,1.105,1.105,0,0,0,.318-.252.689.689,0,0,0,.159-.354.5.5,0,0,0-.2-.535,2.142,2.142,0,0,0-.658-.281c-.269-.073-.561-.14-.874-.2a3.093,3.093,0,0,1-.86-.3,1.4,1.4,0,0,1-.737-1.626,2.344,2.344,0,0,1,.383-1,2.521,2.521,0,0,1,.729-.7,3.26,3.26,0,0,1,.955-.405,4.273,4.273,0,0,1,1.04-.13,3.828,3.828,0,0,1,1.338.238,1.819,1.819,0,0,1,.975.817Z" transform="translate(-511.816 -134.685)" fill="#82a6d2"/>
        <path id="Path_111466" data-name="Path 111466" d="M631.836,142.144a4.076,4.076,0,0,1,.506-1.5,4.233,4.233,0,0,1,.968-1.149,4.326,4.326,0,0,1,1.308-.737,4.469,4.469,0,0,1,1.511-.26,3.817,3.817,0,0,1,1.431.26,2.958,2.958,0,0,1,1.092.737,2.9,2.9,0,0,1,.643,1.149,3.488,3.488,0,0,1,.087,1.5,4.08,4.08,0,0,1-.506,1.5,4.286,4.286,0,0,1-.961,1.149,4.222,4.222,0,0,1-1.3.737,4.469,4.469,0,0,1-1.511.261,3.879,3.879,0,0,1-1.438-.261,2.942,2.942,0,0,1-1.1-.737,2.893,2.893,0,0,1-.643-1.149A3.48,3.48,0,0,1,631.836,142.144Zm1.735,0a2.113,2.113,0,0,0,.028.78,1.681,1.681,0,0,0,.312.665,1.612,1.612,0,0,0,.578.462,1.869,1.869,0,0,0,.831.173,2.216,2.216,0,0,0,.882-.173,2.357,2.357,0,0,0,1.2-1.128,2.521,2.521,0,0,0,.245-.78,2.09,2.09,0,0,0-.029-.781,1.694,1.694,0,0,0-.31-.665,1.621,1.621,0,0,0-.578-.463,1.871,1.871,0,0,0-.831-.173,2.162,2.162,0,0,0-.875.173,2.383,2.383,0,0,0-.7.463,2.514,2.514,0,0,0-.5.665A2.429,2.429,0,0,0,633.571,142.144Z" transform="translate(-515.724 -134.685)" fill="#82a6d2"/>
        <path id="Path_111467" data-name="Path 111467" d="M646.964,132.558H648.7l-1.532,10.928h-1.734Z" transform="translate(-520.605 -132.558)" fill="#82a6d2"/>
        <path id="Path_111468" data-name="Path 111468" d="M657.744,145.709H656.1l.145-1.113h-.03a2.8,2.8,0,0,1-.867.9,2.5,2.5,0,0,1-1.431.383,2.6,2.6,0,0,1-1.149-.225,1.7,1.7,0,0,1-.7-.607,2.1,2.1,0,0,1-.311-.875,3.842,3.842,0,0,1,.007-1.026l.622-4.38h1.734l-.491,3.512q-.043.289-.065.643a2.14,2.14,0,0,0,.058.665,1.047,1.047,0,0,0,.3.521.975.975,0,0,0,.687.209,1.8,1.8,0,0,0,.751-.144,1.64,1.64,0,0,0,.542-.39,2.018,2.018,0,0,0,.362-.564,2.416,2.416,0,0,0,.18-.665l.535-3.787h1.734Z" transform="translate(-522.856 -134.782)" fill="#82a6d2"/>
        <path id="Path_111469" data-name="Path 111469" d="M664.094,139.125l.2-1.474h1.431l.274-2.009h1.735l-.275,2.009h1.908l-.2,1.474H667.26l-.433,3.035a1.4,1.4,0,0,0,.08.824q.151.3.729.3a2.959,2.959,0,0,0,.513-.05,1.2,1.2,0,0,0,.455-.166l-.2,1.46a2.445,2.445,0,0,1-.694.181,5.874,5.874,0,0,1-.708.051,3.332,3.332,0,0,1-1.113-.152,1.237,1.237,0,0,1-.629-.462,1.52,1.52,0,0,1-.238-.773,5.313,5.313,0,0,1,.058-1.07l.448-3.18Z" transform="translate(-527.284 -133.662)" fill="#82a6d2"/>
        <path id="Path_111470" data-name="Path 111470" d="M673.953,136.877h1.734l-.968,6.938h-1.735Zm.087-2.356a1.167,1.167,0,0,1,.412-.73,1.223,1.223,0,0,1,.831-.311,1.022,1.022,0,0,1,.766.3.82.82,0,0,1,.217.745,1.179,1.179,0,0,1-.433.744,1.288,1.288,0,0,1-.839.3.926.926,0,0,1-.744-.311A.883.883,0,0,1,674.04,134.522Z" transform="translate(-530.466 -132.888)" fill="#82a6d2"/>
        <path id="Path_111471" data-name="Path 111471" d="M678.972,142.144a4.077,4.077,0,0,1,.506-1.5,4.211,4.211,0,0,1,.968-1.149,4.319,4.319,0,0,1,1.308-.737,4.469,4.469,0,0,1,1.511-.26,3.819,3.819,0,0,1,1.431.26,2.956,2.956,0,0,1,1.092.737,2.9,2.9,0,0,1,.643,1.149,3.487,3.487,0,0,1,.087,1.5,4.093,4.093,0,0,1-.506,1.5,4.286,4.286,0,0,1-.961,1.149,4.229,4.229,0,0,1-1.3.737,4.469,4.469,0,0,1-1.511.261,3.873,3.873,0,0,1-1.438-.261,2.941,2.941,0,0,1-1.1-.737,2.894,2.894,0,0,1-.643-1.149A3.479,3.479,0,0,1,678.972,142.144Zm1.734,0a2.113,2.113,0,0,0,.029.78,1.68,1.68,0,0,0,.311.665,1.612,1.612,0,0,0,.578.462,1.868,1.868,0,0,0,.831.173,2.216,2.216,0,0,0,.882-.173,2.363,2.363,0,0,0,1.2-1.128,2.554,2.554,0,0,0,.245-.78,2.1,2.1,0,0,0-.029-.781,1.7,1.7,0,0,0-.31-.665,1.626,1.626,0,0,0-.579-.463,1.873,1.873,0,0,0-.832-.173,2.16,2.16,0,0,0-.874.173,2.384,2.384,0,0,0-.7.463,2.513,2.513,0,0,0-.5.665A2.445,2.445,0,0,0,680.706,142.144Z" transform="translate(-532.593 -134.685)" fill="#82a6d2"/>
        <path id="Path_111472" data-name="Path 111472" d="M693.492,138.674h1.648l-.159,1.113h.029a2.96,2.96,0,0,1,.882-.9,2.49,2.49,0,0,1,1.431-.383,2.53,2.53,0,0,1,1.149.231,1.773,1.773,0,0,1,.7.607,1.991,1.991,0,0,1,.3.867,4.119,4.119,0,0,1-.015,1.027l-.607,4.379h-1.734l.491-3.512a6,6,0,0,0,.058-.643,2.314,2.314,0,0,0-.065-.665,1.035,1.035,0,0,0-.311-.519.978.978,0,0,0-.679-.21,1.8,1.8,0,0,0-.752.144,1.651,1.651,0,0,0-.542.39,2,2,0,0,0-.362.564,2.439,2.439,0,0,0-.181.665l-.519,3.787h-1.736Z" transform="translate(-537.458 -134.685)" fill="#82a6d2"/>
        <path id="Path_111473" data-name="Path 111473" d="M709.557,140.6a1.348,1.348,0,0,0-1.257-.708,1.64,1.64,0,0,0-.361.043,1.35,1.35,0,0,0-.347.13.828.828,0,0,0-.267.231.714.714,0,0,0-.137.333.418.418,0,0,0,.209.462,2.565,2.565,0,0,0,.658.246q.4.1.875.209a3.032,3.032,0,0,1,.853.333,1.487,1.487,0,0,1,.729,1.684,2.186,2.186,0,0,1-.412,1.048,2.555,2.555,0,0,1-.788.686,3.542,3.542,0,0,1-1.011.376,5.264,5.264,0,0,1-1.084.116,4.338,4.338,0,0,1-1.46-.232,2.315,2.315,0,0,1-1.1-.838l1.315-1.085a2.908,2.908,0,0,0,.629.615,1.517,1.517,0,0,0,.889.238,1.961,1.961,0,0,0,.4-.043,1.451,1.451,0,0,0,.4-.145,1.111,1.111,0,0,0,.318-.252.682.682,0,0,0,.159-.354.5.5,0,0,0-.2-.535,2.138,2.138,0,0,0-.658-.281q-.4-.109-.875-.2a3.082,3.082,0,0,1-.86-.3,1.4,1.4,0,0,1-.738-1.626,2.344,2.344,0,0,1,.383-1,2.522,2.522,0,0,1,.729-.7,3.269,3.269,0,0,1,.955-.405,4.273,4.273,0,0,1,1.04-.13,3.826,3.826,0,0,1,1.338.238,1.819,1.819,0,0,1,.975.817Z" transform="translate(-541.801 -134.685)" fill="#82a6d2"/>
      </g>
    </g>
  </g>
</svg>
