<svg xmlns="http://www.w3.org/2000/svg" width="21.3" height="21.3" viewBox="0 0 21.3 21.3"><path d="M18.18,3.119A10.65,10.65,0,0,0,3.119,18.18,10.65,10.65,0,0,0,18.18,3.119ZM11.274,6.876a19.425,19.425,0,0,0,3.3-.376,17.773,17.773,0,0,1,.453,3.526H11.274Zm0-1.249V1.353A4.643,4.643,0,0,1,13.636,3.84a11.184,11.184,0,0,1,.6,1.458A18.241,18.241,0,0,1,11.274,5.627ZM10.026,1.353V5.627A18.241,18.241,0,0,1,7.065,5.3a11.19,11.19,0,0,1,.6-1.458A4.643,4.643,0,0,1,10.026,1.353Zm0,5.523v3.15H6.271A17.776,17.776,0,0,1,6.724,6.5,19.425,19.425,0,0,0,10.026,6.876Zm-5,3.15H1.269A9.313,9.313,0,0,1,2.988,5.2,12.559,12.559,0,0,0,5.512,6.2,19.057,19.057,0,0,0,5.022,10.026Zm0,1.248a19.06,19.06,0,0,0,.49,3.822A12.559,12.559,0,0,0,2.988,16.1a9.313,9.313,0,0,1-1.719-4.828Zm1.249,0h3.755v3.15a19.425,19.425,0,0,0-3.3.376A17.773,17.773,0,0,1,6.271,11.274Zm3.755,4.4v4.274A4.643,4.643,0,0,1,7.663,17.46,11.19,11.19,0,0,1,7.065,16,18.241,18.241,0,0,1,10.026,15.672Zm1.248,4.274V15.672a18.241,18.241,0,0,1,2.961.33,11.19,11.19,0,0,1-.6,1.458A4.643,4.643,0,0,1,11.274,19.947Zm0-5.523v-3.15h3.755a17.776,17.776,0,0,1-.453,3.526A19.425,19.425,0,0,0,11.274,14.424Zm5-3.15h3.754A9.313,9.313,0,0,1,18.312,16.1,12.559,12.559,0,0,0,15.787,15.1,19.057,19.057,0,0,0,16.277,11.274Zm0-1.248a19.06,19.06,0,0,0-.49-3.822A12.559,12.559,0,0,0,18.312,5.2a9.313,9.313,0,0,1,1.719,4.828ZM17.5,4.214A11.541,11.541,0,0,1,15.451,5a12.5,12.5,0,0,0-.7-1.723A8.7,8.7,0,0,0,13.825,1.8,9.369,9.369,0,0,1,17.3,4C17.368,4.071,17.436,4.142,17.5,4.214ZM7.474,1.8a8.7,8.7,0,0,0-.927,1.486A12.5,12.5,0,0,0,5.848,5,11.542,11.542,0,0,1,3.8,4.214c.067-.071.135-.142.2-.212A9.369,9.369,0,0,1,7.474,1.8ZM3.8,17.086a11.541,11.541,0,0,1,2.052-.791,12.5,12.5,0,0,0,.7,1.723A8.7,8.7,0,0,0,7.474,19.5,9.369,9.369,0,0,1,4,17.3C3.932,17.228,3.864,17.157,3.8,17.086ZM13.825,19.5a8.7,8.7,0,0,0,.927-1.486,12.5,12.5,0,0,0,.7-1.723,11.542,11.542,0,0,1,2.052.791c-.067.071-.135.142-.2.212A9.369,9.369,0,0,1,13.825,19.5Z" fill="#0058f7"/></svg>