<svg xmlns="http://www.w3.org/2000/svg" width="60" height="50" viewBox="0 0 60 50">
  <g id="medical_app" data-name="medical app" transform="translate(-2 -7)">
    <path id="Path_111148" data-name="Path 111148" d="M59,7H5a3,3,0,0,0-3,3V54a3,3,0,0,0,3,3H59a3,3,0,0,0,3-3V10a3,3,0,0,0-3-3Zm1,47a1,1,0,0,1-1,1H5a1,1,0,0,1-1-1V17H60Zm0-39H4V10A1,1,0,0,1,5,9H59a1,1,0,0,1,1,1ZM20,12a1,1,0,0,1-1,1H7a1,1,0,0,1,0-2H19a1,1,0,0,1,1,1Zm38,0a1,1,0,1,1-1-1A1,1,0,0,1,58,12ZM31.346,48.06a1,1,0,0,0,.705.29h0a1,1,0,0,0,.706-.295l9.865-9.934A8,8,0,0,0,31.979,26.214,8,8,0,0,0,21.412,38.193ZM22.794,28.289a6.006,6.006,0,0,1,8.485-.029,1,1,0,0,0,1.413,0,6,6,0,1,1,8.514,8.456l-9.16,9.225-9.224-9.162a6,6,0,0,1-.028-8.484ZM24,34a1,1,0,0,1,1-1h2.465l1.7-2.555a1,1,0,0,1,1.78.238L32.3,34.744l.866-1.3A1,1,0,0,1,34,33h5a1,1,0,0,1,0,2H34.535l-1.7,2.555A1,1,0,0,1,32,38a1.021,1.021,0,0,1-.133-.009,1,1,0,0,1-.815-.675L29.7,33.256l-.866,1.3A1,1,0,0,1,28,35H25a1,1,0,0,1-1-1Z" fill="#0058f7"/>
  </g>
</svg>
