<svg xmlns="http://www.w3.org/2000/svg" width="21.3" height="21.3" viewBox="0 0 21.3 21.3"><path d="M5.526,15.762c2.976,2.976,6.339,4.976,9.226,5.486a3.364,3.364,0,0,0,.586.052,3.088,3.088,0,0,0,2.215-.935L19.6,18.318a1.505,1.505,0,0,0,0-2.126l-3.678-3.678a1.5,1.5,0,0,0-2.126,0l-1.857,1.858A24.676,24.676,0,0,1,6.916,9.349L8.774,7.492a1.5,1.5,0,0,0,0-2.126L5.1,1.688a1.5,1.5,0,0,0-2.126,0L.923,3.735a3.1,3.1,0,0,0-.883,2.8c.51,2.887,2.51,6.25,5.486,9.226ZM1.864,4.676,3.911,2.629a.174.174,0,0,1,.243,0L7.833,6.307a.175.175,0,0,1,0,.244L5.877,8.506a1.165,1.165,0,0,0-.126,1.5,25.563,25.563,0,0,0,5.527,5.527,1.165,1.165,0,0,0,1.5-.126l1.955-1.955a.174.174,0,0,1,.244,0l3.678,3.678a.174.174,0,0,1,0,.244l-2.047,2.047a1.78,1.78,0,0,1-1.628.513c-2.586-.457-5.769-2.37-8.516-5.116S1.808,8.89,1.351,6.3a1.779,1.779,0,0,1,.513-1.628ZM21.288,8.82a.666.666,0,1,1-1.331,0,7.5,7.5,0,0,0-7.489-7.489.666.666,0,0,1,0-1.331A8.83,8.83,0,0,1,21.288,8.82Zm-8.82-3.671a.666.666,0,0,1,0-1.331,5.008,5.008,0,0,1,5,5,.666.666,0,1,1-1.331,0,3.675,3.675,0,0,0-3.671-3.671ZM11.06,7.628a.666.666,0,0,1,.666-.666,2.7,2.7,0,0,1,2.7,2.7.666.666,0,1,1-1.331,0,1.367,1.367,0,0,0-1.365-1.365A.666.666,0,0,1,11.06,7.628Z" transform="translate(0.012)" fill="#0058f7"/></svg>