<svg xmlns="http://www.w3.org/2000/svg" width="53.5" height="53.5" viewBox="0 0 53.5 53.5">
  <g id="document" transform="translate(-0.002)">
    <g id="Page-1_34_" transform="translate(0.002 0)">
      <g id="_x30_35---Privacy-Policy" transform="translate(0 0)">
        <path id="Shape_133_" d="M260.283,269.509a.892.892,0,0,0-.853,1.033c.761,4.733,3.178,13.273,10.807,17.307a.891.891,0,0,0,.833,0c7.633-4.035,10.047-12.573,10.807-17.307a.892.892,0,0,0-.852-1.033,17.3,17.3,0,0,1-9.844-3.177.891.891,0,0,0-1.054,0A17.3,17.3,0,0,1,260.283,269.509Zm19.66,1.728c-.852,4.422-3.143,11.312-9.29,14.806-6.143-3.494-8.436-10.384-9.289-14.806a19.017,19.017,0,0,0,9.289-3.1A19.014,19.014,0,0,0,279.943,271.238Z" transform="translate(-232.311 -238.348)" fill="#0058f7"/>
        <path id="Shape_132_" d="M1.785,25.859H8.919V43.692a5.371,5.371,0,0,0,5.359,5.35H31.336a20.906,20.906,0,0,0,6.455,4.345,1.406,1.406,0,0,0,1.106,0c13.108-5.641,14.465-21.4,14.6-24.5a1.387,1.387,0,0,0-1.554-1.437c-7.806.938-11.592-2.661-12.561-3.787a1.419,1.419,0,0,0-2.083,0,9.677,9.677,0,0,1-1.634,1.463V5.35A5.355,5.355,0,0,0,30.319,0H5.352A5.35,5.35,0,0,0,0,5.35V24.075a1.783,1.783,0,0,0,1.783,1.783Zm16.407,21.4A5.651,5.651,0,0,0,19.619,43.5V39.234h5.651a27.327,27.327,0,0,0,4.444,8.025ZM38.344,25.165c1.458,1.522,5.618,4.886,13.35,4.1-.243,3.756-1.908,17.377-13.35,22.416-11.438-5.036-13.108-18.66-13.35-22.411a17.43,17.43,0,0,0,10.088-1.694.857.857,0,0,0,.144-.077A12.778,12.778,0,0,0,38.344,25.165ZM33.886,5.35V26.18a16.147,16.147,0,0,1-9.144,1.267,1.388,1.388,0,0,0-1.556,1.444,36.963,36.963,0,0,0,1.5,8.56H19.619a1.783,1.783,0,0,0-1.783,1.783V43.5A3.707,3.707,0,0,1,14.6,47.25a2.557,2.557,0,0,1-.326.009A3.581,3.581,0,0,1,10.7,43.692V5.539A5.651,5.651,0,0,0,9.275,1.783H30.319A3.567,3.567,0,0,1,33.886,5.35Zm-32.1,0A3.579,3.579,0,0,1,2.953,2.713a3.538,3.538,0,0,1,2.391-.93h.065a2.045,2.045,0,0,1,.3.014A3.7,3.7,0,0,1,8.919,5.539V24.075H1.785Z" transform="translate(-0.002 0)" fill="#0058f7"/>
        <g id="Group_107988" data-name="Group 107988" transform="translate(13.375 5.35)">
          <path id="Path_122_" d="M128.894,52.984h16.05a.892.892,0,1,0,0-1.783h-16.05a.892.892,0,0,0,0,1.783Z" transform="translate(-128.002 -51.201)" fill="#0058f7" fill-rule="evenodd"/>
          <path id="Path_121_" d="M128.894,104.184h16.05a.892.892,0,1,0,0-1.783h-16.05a.892.892,0,0,0,0,1.783Z" transform="translate(-128.002 -97.051)" fill="#0058f7" fill-rule="evenodd"/>
          <path id="Path_120_" d="M128.894,155.384h16.05a.892.892,0,1,0,0-1.783h-16.05a.892.892,0,0,0,0,1.783Z" transform="translate(-128.002 -142.901)" fill="#0058f7" fill-rule="evenodd"/>
          <path id="Path_119_" d="M128.894,206.584h16.05a.892.892,0,1,0,0-1.783h-16.05a.892.892,0,0,0,0,1.783Z" transform="translate(-128.002 -188.751)" fill="#0058f7" fill-rule="evenodd"/>
          <path id="Path_118_" d="M128.895,257.783h6.242a.892.892,0,0,0,0-1.783h-6.242a.892.892,0,0,0,0,1.783Z" transform="translate(-128.003 -234.6)" fill="#0058f7" fill-rule="evenodd"/>
          <path id="Path_117_" d="M128.894,308.984h6.242a.892.892,0,1,0,0-1.783h-6.242a.892.892,0,1,0,0,1.783Z" transform="translate(-128.002 -280.451)" fill="#0058f7" fill-rule="evenodd"/>
        </g>
      </g>
    </g>
  </g>
</svg>
