<svg xmlns="http://www.w3.org/2000/svg" width="26.369" height="19.749" viewBox="0 0 26.369 19.749"><path d="M26.369,66.693a2.429,2.429,0,0,0-2.427-2.427H2.427A2.43,2.43,0,0,0,0,66.693H0V81.588a2.427,2.427,0,0,0,2.427,2.427H23.941a2.427,2.427,0,0,0,2.427-2.427V66.693h0ZM2.427,65.811H23.942a.883.883,0,0,1,.882.883.771.771,0,0,1-.344.643l-10.805,7.2a.88.88,0,0,1-.979,0L1.89,67.337h0a.772.772,0,0,1-.344-.644.883.883,0,0,1,.882-.882ZM23.941,82.47H2.427a.882.882,0,0,1-.882-.882V68.964l10.293,6.862a2.421,2.421,0,0,0,2.693,0l10.293-6.862V81.588a.882.882,0,0,1-.882.882Z" transform="translate(0 -64.266)" fill="#0058f7"/></svg>