<svg xmlns="http://www.w3.org/2000/svg" width="64.431" height="62.244" viewBox="0 0 64.431 62.244">
  <g id="patients" transform="translate(-927.784 -5701.378)">
    <g id="patient_2_" data-name="patient (2)" transform="translate(927.784 5701.378)">
      <path id="Path_111144" data-name="Path 111144" d="M190.044,345.658a1.149,1.149,0,0,0,.982,0c2.451-1.163,4.807-3.378,4.8-6.23a3.111,3.111,0,0,0-5.3-2.192,3.111,3.111,0,0,0-5.3,2.2C185.23,342.349,187.717,344.56,190.044,345.658Zm-.595-6.856a1.308,1.308,0,0,0,1.112.611,1.289,1.289,0,0,0,1.042-.608,1.283,1.283,0,0,1,2.4.624c0,1.965-1.769,3.536-3.475,4.436-1.732-.893-3.478-2.478-3.48-4.429a1.284,1.284,0,0,1,2.4-.633Zm0,0" transform="translate(-162.709 -295.436)" fill="#0058f7"/>
      <path id="Path_111145" data-name="Path 111145" d="M182.555,387.518a.912.912,0,0,0,.912.912h16.523a2.33,2.33,0,0,0,2.327-2.327V372.24a.912.912,0,0,0-1.824,0v4.394h-4.751a2.33,2.33,0,0,0-2.327,2.327v7.645h-9.948a.912.912,0,0,0-.912.912Zm12.684-8.556a.5.5,0,0,1,.5-.5h4.751V386.1a.5.5,0,0,1-.5.5h-4.751Zm0,0" transform="translate(-160.362 -326.186)" fill="#0058f7"/>
      <path id="Path_111146" data-name="Path 111146" d="M41.955,40.922a8.138,8.138,0,0,0-4.812-7.431l-.018-.007-10.9-4.222V26.705a8.543,8.543,0,0,0,3.237-5.652,4.073,4.073,0,0,0,3.658-3.847,3.629,3.629,0,0,0-.94-2.412V11.3a11.3,11.3,0,1,0-22.6,0v3.573a3.493,3.493,0,0,0-.94,2.334A4.072,4.072,0,0,0,12.3,21.054a8.451,8.451,0,0,0,3.422,5.786v2.422L4.812,33.49A8.137,8.137,0,0,0,0,40.922V59.916a2.33,2.33,0,0,0,2.327,2.327H18.85a.912.912,0,1,0,0-1.824H8.9V52.775a2.33,2.33,0,0,0-2.327-2.327H1.823V40.922A6.318,6.318,0,0,1,5.5,35.179l7.584-2.94c1.274,2.721,4.9,4.092,7.887,4.092s6.614-1.369,7.888-4.093l7.6,2.941a6.366,6.366,0,0,1,3.677,5.742V41.8a.912.912,0,0,0,1.824,0v-.877ZM1.823,52.271H6.574a.5.5,0,0,1,.5.5V60.42H2.327a.5.5,0,0,1-.5-.5ZM31.3,17.207a2.216,2.216,0,0,1-1.763,1.978V15.231A2.2,2.2,0,0,1,31.3,17.207ZM12.225,19.185a2.217,2.217,0,0,1-1.763-1.979,2.3,2.3,0,0,1,1.763-1.92Zm.039-5.784a4.767,4.767,0,0,0-.861.239V11.3a9.477,9.477,0,1,1,18.953,0v2.275a4.691,4.691,0,0,0-.822-.205,2.194,2.194,0,0,0-.038-.539c-.119-.472-.608-.91-2.75-3.21a1.625,1.625,0,0,0-2.155-.342,17.575,17.575,0,0,1-10.627,2.861,1.621,1.621,0,0,0-1.7,1.263Zm1.785,6.558V13.972a19.474,19.474,0,0,0,11.4-3.074c1.311,1.408,2.035,2.161,2.266,2.444v6.618A6.729,6.729,0,0,1,21,26.679h-.016a6.764,6.764,0,0,1-6.934-6.72ZM24.4,27.792v1.754a4.672,4.672,0,0,1-6.858,0v-1.7a9.32,9.32,0,0,0,3.448.653,8.563,8.563,0,0,0,3.41-.711Zm-8.406,5.173a3.745,3.745,0,0,1-1.2-1.387l1.584-.614a6.5,6.5,0,0,0,9.194,0l1.585.614c-1.3,2.568-6.879,4.348-11.159,1.388Zm0,0" transform="translate(0 0)" fill="#0058f7"/>
    </g>
    <g id="Layer_28" data-name="Layer 28" transform="translate(973.152 5722.612)">
      <path id="Path_111147" data-name="Path 111147" d="M36.769,32.476a1.367,1.367,0,0,0-1.927,0L28.97,38.341V3.367a1.367,1.367,0,0,0-2.734,0V38.341l-5.871-5.864A1.367,1.367,0,0,0,18.438,34.4l8.2,8.2a1.367,1.367,0,0,0,1.941,0l8.2-8.2A1.367,1.367,0,0,0,36.769,32.476Z" transform="translate(-18.109 -2)" fill="#0058f7"/>
    </g>
  </g>
</svg>
